<svg width="19" height="34" viewBox="0 0 19 34" fill="none" xmlns="http://www.w3.org/2000/svg">
<path d="M9.76723 33.221C10.1498 29.5924 13.85 27.0853 17.1646 23.7193C20.4792 20.3534 17.3823 14.1238 15.8717 10.9556C14.3611 7.78743 12.9987 9.14852 13.2905 10.3263C13.5823 11.5041 13.9059 12.4033 13.9059 15.1731C13.9059 17.891 13.7986 19.5191 12.9987 22.1807C12.4573 24.0138 10.5566 22.6844 10.9301 20.6421C11.1523 19.4123 12.0808 15.4777 10.9059 15.342C9.40281 15.1674 8.97336 17.497 8.38817 18.8667C7.61698 20.6709 5.61793 22.8995 4.74846 24.4959C3.87898 26.0922 2.94448 29.0612 6.22884 32.277C9.51319 35.4929 9.76723 33.221 9.76723 33.221Z" fill="#A1B059"/>
<path d="M8.8688 0.781667C8.48636 4.4101 4.78738 6.91565 1.47386 10.2814C-1.83966 13.6472 1.2577 19.8778 2.76631 23.0444C4.27493 26.211 5.63843 24.8529 5.34668 23.6751C5.05494 22.4974 4.73145 21.5968 4.73145 18.8271C4.73145 16.1094 4.84028 14.4828 5.63843 11.8214C6.1796 9.98409 8.08124 11.3134 7.71089 13.3556C7.48868 14.5867 6.55902 18.5212 7.73507 18.6568C9.23765 18.83 9.66544 16.5005 10.2504 15.1323C11.0214 13.3268 13.0198 11.0998 13.8905 9.50347C14.7612 7.90719 15.6939 4.9369 12.4106 1.72125C9.12729 -1.4944 8.8688 0.781667 8.8688 0.781667Z" fill="#A1B059"/>
</svg>
